<?xml version="1.0" encoding="utf-8"?>
<!-- Generator: Adobe Illustrator 23.0.3, SVG Export Plug-In . SVG Version: 6.00 Build 0)  -->
<svg version="1.1" id="Layer_1" xmlns="http://www.w3.org/2000/svg" xmlns:xlink="http://www.w3.org/1999/xlink" x="0px" y="0px"
	 viewBox="0 0 149.4 144" style="enable-background:new 0 0 149.4 144;" xml:space="preserve">
<style type="text/css">
	.st0{fill:#46BDD0;}
</style>
<path class="st0" d="M143.3,61.8L120,31.5c-0.9-1.1-2.4-1.4-3.6-0.6l-15,9.6H81.8c-0.3,0-0.5,0.1-0.8,0.1L65.8,45L50,40.7l-15.3-9.8
	c-1.2-0.7-2.7-0.5-3.6,0.6L5.3,63.4c-0.9,1.1-0.8,2.8,0.3,3.8l13.5,11.6l12.1,16.3c-3.5,3.8-3.5,9.7,0.2,13.4
	c1.6,1.6,3.7,2.6,5.9,2.8c-0.1,0.5-0.1,1-0.1,1.5c0,2.6,1,5,2.8,6.8s4.2,2.8,6.8,2.8h0.1c0,0.1,0,0.1,0,0.2c0,2.6,1,5,2.8,6.8
	c1.8,1.8,4.2,2.8,6.8,2.8c0.5,0,1,0,1.5-0.1c0.2,2.1,1.1,4.2,2.8,5.9c1.9,1.9,4.4,2.8,6.8,2.8c2.5,0,4.9-0.9,6.8-2.8l1.5-1.5
	l0.6,0.5c1.9,1.8,4.3,2.7,6.7,2.7c2.5,0,4.9-0.9,6.8-2.8c1.9-1.9,2.9-4.5,2.8-7c2.5,0,5.1-0.9,7-2.8c1.9-1.9,2.9-4.4,2.8-7
	c2.6,0,5.1-1,7-2.8c1.9-1.9,2.9-4.5,2.8-7c2.5,0,5.1-0.9,7-2.8c3.3-3.3,3.7-8.3,1.3-12.1l8.8-18.5L143,65.5
	C144.1,64.6,144.2,63,143.3,61.8z M33.8,36.8l11,7L20.8,73l-9.6-8.3L33.8,36.8z M35.4,98.8l3.3-3.3c0.1-0.1,0.2-0.2,0.3-0.3
	c0.7-0.5,1.4-0.8,2.3-0.9c0,0,0,0,0.1,0s0.2,0,0.4,0c1.1,0,2.2,0.5,3,1.3c1.5,1.6,1.5,4.3-0.2,5.9l-3.2,3.2c-1.6,1.6-4.3,1.6-5.9,0
	C33.7,103.1,33.7,100.4,35.4,98.8z M43.9,115.8c-0.8-0.8-1.2-1.8-1.2-3s0.4-2.2,1.2-3l6.5-6.5c1.2-1.2,3.2-1.6,4.8-0.8
	c1.6,0.8,2.5,2.5,2.3,4.3c-0.1,0.9-0.6,1.8-1.2,2.5l-6.4,6.4c-0.8,0.8-1.8,1.2-3,1.2S44.7,116.6,43.9,115.8z M53.7,125.6
	c-0.8-0.8-1.2-1.8-1.2-3s0.4-2.2,1.2-3l6.5-6.5c1.3-1.3,3.4-1.6,5.1-0.7c1.5,0.9,2.3,2.5,2,4.2c-0.1,0.9-0.6,1.8-1.2,2.5l-6.4,6.4
	c-0.8,0.8-1.8,1.2-3,1.2S54.5,126.4,53.7,125.6z M64.8,134.2c-1.6-1.6-1.6-4.3,0-5.9l3.3-3.3c0.1-0.1,0.2-0.2,0.3-0.3l0,0
	c0.5-0.4,1.2-0.7,1.9-0.9l0,0c0.1,0,0.2,0,0.4,0h0.1c0.1,0,0.2,0,0.3,0c1.1,0,2.2,0.5,3,1.3c0.1,0.1,0.2,0.2,0.3,0.3
	c1.3,1.6,1.1,4.1-0.5,5.6l-3.2,3.2C69.1,135.8,66.4,135.8,64.8,134.2z M115.7,103.7c-1.6,1.6-4.3,1.6-5.9,0
	c-0.1-0.1-0.1-0.1-0.2-0.2L92,85.8c-1.1-1.1-2.8-1.1-3.9,0s-1.1,2.8,0,3.9l17.7,17.9l0,0c1.6,1.6,1.6,4.3,0,5.9
	c-0.8,0.8-1.8,1.2-3,1.2c-1.1,0-2.2-0.4-3-1.2l-11.9-12c-1.1-1.1-2.8-1.1-3.9,0s-1.1,2.8,0,3.9l11.7,11.8c0.1,0.1,0.1,0.1,0.2,0.2
	c1.6,1.6,1.6,4.3,0,5.9s-4.3,1.6-5.9,0l-6.5-6.5c-1.1-1.1-2.8-1.1-3.9,0s-1.1,2.8,0,3.9l6.3,6.4c0.1,0.1,0.1,0.1,0.2,0.2
	c1.6,1.6,1.6,4.3,0,5.9s-4.3,1.6-5.9,0c-0.2-0.2-0.4-0.3-0.6-0.5c-0.2-0.1-0.2-0.2-0.1-0.4s0.2-0.4,0.3-0.6c0.1-0.2,0.2-0.5,0.3-0.8
	c0.4-1.3,0.5-2.8,0.4-4.2c-0.4-2.7-1.8-5.1-4.1-6.6c-1.2-0.8-2.6-1.4-4.1-1.6c0.7-3.1-0.1-6.5-2.3-8.8c-1.8-1.9-4.2-3-6.9-3
	c-0.1,0-0.2,0-0.3,0c0.1-2.5-0.9-5-2.6-6.8c-1.8-1.9-4.3-3-6.9-3c-0.8,0-1.6,0.1-2.3,0.2c-0.3-2.3-1.5-4.4-3.2-5.8
	c-1.7-1.5-3.9-2.3-6.2-2.3c-2.4,0-4.8,0.9-6.6,2.5L24.6,77l25.2-30.8l8,2.2L47.4,67c-1.3,2.2-1.6,4.8-0.9,7.3
	c0.7,2.5,2.3,4.6,4.5,5.8c0.1,0.1,0.3,0.2,0.4,0.2l0,0c0.4,0.2,0.8,0.3,1.2,0.5c1.8,0.6,3.8,0.7,5.7,0.2c2.5-0.7,4.5-2.3,5.8-4.5
	l6.8-12l12.2,0.9l32.5,32.5C117.3,99.4,117.3,102.1,115.7,103.7z M116.8,91.2L86.4,60.8c-0.1-0.1-0.1-0.1-0.2-0.2
	c-0.4-0.4-1-0.6-1.6-0.6l-14.9-1.1c-1-0.1-2.1,0.5-2.6,1.4l-7.7,13.5c-0.6,1-1.4,1.7-2.5,2s-2.2,0.2-3.2-0.4s-1.7-1.4-2-2.5
	s-0.2-2.2,0.4-3.2l10.2-18.1l4.2-1.2h0.1l15.5-4.5h18.7l23.4,29.7L116.8,91.2z M127.8,71.4l-21.6-27.5l11-7l20.2,26.2L127.8,71.4z"
	/>
<path class="st0" d="M89,35.3c0.7,0,1.4-0.3,1.9-0.8l18.6-18.6c1.1-1.1,1.1-2.8,0-3.9s-2.8-1.1-3.9,0L87.1,30.7
	c-1.1,1.1-1.1,2.8,0,3.9C87.6,35.1,88.3,35.3,89,35.3z"/>
<path class="st0" d="M57.7,34.5c0.5,0.5,1.2,0.8,1.9,0.8s1.4-0.3,1.9-0.8c1.1-1.1,1.1-2.8,0-3.9L42.9,12c-1.1-1-2.8-1-3.9,0
	s-1.1,2.8,0,3.9L57.7,34.5z"/>
<path class="st0" d="M74.3,35.3c1.5,0,2.7-1.2,2.7-2.7V17.2c0-1.5-1.2-2.7-2.7-2.7s-2.7,1.2-2.7,2.7v15.4
	C71.6,34.1,72.8,35.3,74.3,35.3z"/>
<path class="st0" d="M71.8,7.3c0.4,1,1.5,1.7,2.6,1.7c1.1-0.1,2.1-0.8,2.5-1.9c0.3-1.1,0-2.3-0.9-3S73.8,3.4,72.8,4
	C71.7,4.7,71.3,6.1,71.8,7.3z"/>
</svg>
