<?xml version="1.0" encoding="utf-8"?>
<!-- Generator: Adobe Illustrator 23.0.3, SVG Export Plug-In . SVG Version: 6.00 Build 0)  -->
<svg version="1.1" id="Layer_1" xmlns="http://www.w3.org/2000/svg" xmlns:xlink="http://www.w3.org/1999/xlink" x="0px" y="0px"
	 viewBox="0 0 252 144" style="enable-background:new 0 0 252 144;" xml:space="preserve">
<style type="text/css">
	.st0{fill:#46BDD0;}
</style>
<path class="st0" d="M105.4,66.5c6.9,18.7,13.7,37.2,20.7,56c6.9-18.8,13.7-37.4,20.6-56.1c2.1,1.2,4.1,2.2,6,3.4
	c12.2,8.1,19.7,19.3,22.3,33.8c0.3,1.7,0.4,3.4,0.6,5.1c0.4,4.5-1.9,7.9-4.8,11c-5.5,5.7-12.3,9.3-19.7,11.9
	c-10.2,3.6-20.8,4.9-31.6,3.9c-11.5-1-22.3-4.2-31.9-10.7c-1.9-1.3-3.7-2.8-5.4-4.4c-4.5-4.1-6.1-9.1-5.1-15.2
	c2-13.1,8-23.9,18.2-32.3C98.2,70.3,101.5,68.2,105.4,66.5z"/>
<path class="st0" d="M125.9,9.4c14.9-0.2,27.4,12.2,27.3,27.3C153,52,140.6,64,125.3,63.6C110,63.3,98.2,50.5,98.9,35.3
	C99.5,20.8,111.6,9.3,125.9,9.4z"/>
<path class="st0" d="M54.6,65c5.1,13.8,9.9,27.2,14.8,40.6c0.1,0,0.2,0,0.3,0c5-13.4,9.9-26.8,14.9-40.4c3.5,1.4,6.3,3.5,9,5.9
	c-1.3,1.2-2.5,2.3-3.7,3.4c-8.3,8.2-13.2,18-15,29.5c-0.6,3.8-0.9,7.6,0.9,11.4c-1.9,0.1-3.6,0.4-5.2,0.4
	c-8.8,0.1-17.3-1.6-25.2-5.6c-3.4-1.8-6.6-3.9-9.1-6.9c-2-2.4-3-5-2.7-8.2c1-10.4,5.4-18.9,13.6-25.4C49.5,68.1,52,66.7,54.6,65z"/>
<path class="st0" d="M182.6,106.1c5-13.7,9.9-27.2,15-41.1c2.7,1.8,5.3,3.3,7.6,5.1c5.9,4.8,10,10.8,12,18.1c0.6,2.3,1,4.6,1.3,7
	c0.5,3.6-1,6.5-3.4,9c-4.5,4.7-10.2,7.4-16.3,9.3c-6.8,2.1-13.8,2.7-20.8,2.3c-0.5,0-1-0.1-1.6-0.2c0.1-0.4,0.2-0.7,0.3-1
	c0.9-2,1.1-4.1,1-6.3c-0.5-7.4-2.5-14.4-5.9-20.9c-3.1-6-7.3-11.1-12.5-15.4c-0.2-0.2-0.4-0.3-0.7-0.6c2.7-2.4,5.7-4.3,9-5.9
	C172.5,78.9,177.5,92.3,182.6,106.1z"/>
<path class="st0" d="M69.5,63.3c-11,0.1-19.3-9-19.7-18.6c-0.5-12.2,8.9-21,19.8-21c11.1,0,19.8,8.9,19.8,20.1
	C89.4,54.6,80.4,63.4,69.5,63.3z"/>
<path class="st0" d="M183.1,63.4c-10.9,0.2-19.2-7.9-20.3-17.6c-1.2-11.4,7.4-21.4,18.6-22c10.6-0.6,20.2,7.9,20.7,18.7
	C202.8,53.7,194.6,62.7,183.1,63.4z"/>
<path class="st0" d="M125.9,111.5c-0.4-1.1-0.8-1.9-1.1-2.7c-1.7-4.3-3.3-8.7-5.1-13c-0.6-1.5-0.8-2.8-0.3-4.4c1-3.6,1.9-7.3,2.6-11
	c0.4-1.8,1.5-2.9,2.8-4c1-0.9,1.5-0.8,2.6,0c1.7,1.3,2.5,2.9,2.9,4.9c0.8,3.9,1.8,7.7,2.7,11.6c0.1,0.4,0.1,0.9,0,1.3
	c-2.2,5.6-4.3,11.1-6.5,16.6C126.3,111,126.2,111.1,125.9,111.5z"/>
<path class="st0" d="M178.6,68.3c1.4-1.4,2.6-2.7,3.9-4.1c1.3,1.3,2.4,2.6,3.7,4c-1.1,1.2-2.2,2.4-3.3,3.5c0,0.1,0,0.3,0.1,0.3
	c2.8,1.6,2.7,4.6,3.4,7.1c0.5,1.6,0.8,3.2,1.1,4.9c0.1,0.7,0.2,1.6-0.1,2.3c-1.4,3.7-2.9,7.4-4.4,11.1c-0.1,0.3-0.3,0.7-0.5,1.2
	c-0.6-1.5-1.1-2.7-1.6-4c-1.1-2.8-2.2-5.6-3.3-8.5c-0.2-0.5-0.3-1.2-0.2-1.8c0.6-2.8,1.4-5.6,2-8.4c0.3-1.4,0.8-2.5,2-3.3
	c0.9-0.6,0.8-1.1,0-1.8C180.5,70.1,179.6,69.2,178.6,68.3z"/>
<path class="st0" d="M69.6,98.7c-1.3-3.3-2.3-6.5-3.7-9.4c-1.3-2.9-1.6-5.6-0.5-8.6c0.6-1.8,0.8-3.7,1.4-5.6
	c0.2-0.7,0.7-1.3,1.2-1.9c0.4-0.5,0.9-0.8,1.6-1.5c-1-1-2-1.8-3-2.8c-0.2-0.2-0.4-0.9-0.3-1.1c1-1.2,2.1-2.4,3.3-3.7
	c1.3,1.4,2.5,2.7,3.9,4.2c-1.3,1.1-2.5,2.2-3.7,3.2c0.2,0.3,0.3,0.5,0.4,0.6c1.9,1,2.4,2.7,2.8,4.6c0.4,2,0.8,3.9,1.4,5.8
	c0.5,1.7,0.4,3.2-0.3,4.9c-1.4,3.2-2.5,6.5-3.8,9.7C70.1,97.6,69.9,98,69.6,98.7z"/>
<path class="st0" d="M126.1,75.3c-1.7-1.7-3.3-3.2-5-4.9c1.6-1.7,3.1-3.4,4.9-5.3c1.2,1.3,2.4,2.5,3.5,3.7c1.6,1.8,1.7,1.4,0,3.1
	C128.3,73,127.2,74.1,126.1,75.3z"/>
</svg>
