<?xml version="1.0" encoding="utf-8"?>
<!-- Generator: Adobe Illustrator 23.0.3, SVG Export Plug-In . SVG Version: 6.00 Build 0)  -->
<svg version="1.1" id="Capa_1" xmlns="http://www.w3.org/2000/svg" xmlns:xlink="http://www.w3.org/1999/xlink" x="0px" y="0px"
	 viewBox="0 0 512 512" style="enable-background:new 0 0 512 512;" xml:space="preserve">
<style type="text/css">
	.st0{fill:#2FB7C1;}
</style>
<g>
	<path class="st0" d="M407.9,97.6c-6.1,0-12.1,0.5-18.1,1.6C365.5,32.8,295.9-8.6,225.9,1.5C166,10.1,115.9,55,100.8,113.6l14.6,3.8
		c15.7-61,73.2-104.1,136.1-102.3c62.2,1.8,110,44.2,128.3,101.9c29.5-7.3,59.1-4.4,83.3,15.3c23,18.7,35.3,48.5,31.9,77.9
		c-3.6,30.8-23.6,57.6-51.7,70.3c-17,7.7-33.4,6.7-51.7,6.7v15.1c18.4,0,34.9,0.9,52.5-5.8c35.5-13.5,57-40.4,64.3-74.7
		C521.7,158.9,472.3,97.6,407.9,97.6L407.9,97.6z"/>
	<path class="st0" d="M73.5,286.4c-47-9.9-71.4-65.1-47.1-106.5c25.1-42.8,83.1-46.1,115.9-10.8l10.9-10.3
		c-12.8-13.8-28.7-24-47.4-27.8l0,0C42.1,119.2-14.8,179.7,5.8,242.8c9.4,28.9,34.7,52.6,64.8,58.4c16.2,3.1,33.6,1.7,50,1.7v-15.1
		C105,287.8,88.9,288.8,73.5,286.4L73.5,286.4z"/>
	<path class="st0" d="M165.7,376.9h15.1v15.1h-15.1V376.9z"/>
	<path class="st0" d="M195.8,376.9h15.1v15.1h-15.1V376.9z"/>
	<path class="st0" d="M286.2,376.9h60.2v15.1h-60.2V376.9z"/>
	<path class="st0" d="M249,436.7h15.1v15.1H249L249,436.7z"/>
	<path class="st0" d="M165.7,466.8h15.1v15.1h-15.1V466.8z"/>
	<path class="st0" d="M195.8,466.8h15.1v15.1h-15.1V466.8z"/>
	<path class="st0" d="M286.2,466.8h60.2v15.1h-60.2V466.8z"/>
	<path class="st0" d="M249,317h15.1v15.1H249L249,317z"/>
	<path class="st0" d="M165.7,286.9h15.1V302h-15.1V286.9z"/>
	<path class="st0" d="M195.8,286.9h15.1V302h-15.1V286.9z"/>
	<path class="st0" d="M286.2,286.9h60.2V302h-60.2V286.9z"/>
	<path class="st0" d="M308.7,196.6h23.4c3.2,8.6,11.5,14.8,21.3,14.8c12.5,0,22.7-10.2,22.7-22.7c0-12.5-10.2-22.7-22.7-22.7
		c-10,0-18.5,6.5-21.5,15.6h-38.2v75.2h-15.1V146.1l16.5-16.5c3.1,1.6,6.7,2.6,10.4,2.6c12.5,0,22.7-10.2,22.7-22.7
		s-10.2-22.7-22.7-22.7c-12.5,0-22.7,10.2-22.7,22.7c0,3.3,0.7,6.4,1.9,9.2l-21.2,21.2v117h-15.1V96.3l-20-20c0.9-2.5,1.5-5.2,1.5-8
		c0-12.5-10.2-22.7-22.7-22.7c-12.5,0-22.7,10.2-22.7,22.7S194.7,91,207.3,91c4.2,0,8.1-1.1,11.5-3.1l14.7,14.7v154.2h-15.1V196
		h-38.2c-3.2-8.6-11.5-14.8-21.3-14.8c-12.5,0-22.7,10.2-22.7,22.7s10.2,22.7,22.7,22.7c10,0,18.6-6.5,21.5-15.6h22.9v45.8h-67.6
		v75.3h15.4v14.7h-15.4V422h15.4v14.7h-15.4V512h240.5v-75.3h-14.4V422h14.4v-75.3h-14.4v-14.7h14.4v-75.3h-67.6L308.7,196.6z
		 M353.4,181.1c4.2,0,7.6,3.4,7.6,7.6c0,4.2-3.4,7.6-7.6,7.6s-7.6-3.4-7.6-7.6C345.7,184.5,349.2,181.1,353.4,181.1z M305.6,101.8
		c4.2,0,7.6,3.4,7.6,7.6c0,4.2-3.4,7.6-7.6,7.6s-7.6-3.4-7.6-7.6C297.9,105.2,301.3,101.8,305.6,101.8z M199.6,68.3
		c0-4.2,3.4-7.6,7.6-7.6s7.6,3.4,7.6,7.6c0,4.2-3.4,7.6-7.6,7.6S199.6,72.5,199.6,68.3z M158.9,211.5c-4.2,0-7.6-3.4-7.6-7.6
		s3.4-7.6,7.6-7.6c4.2,0,7.6,3.4,7.6,7.6S163.1,211.5,158.9,211.5z M150.9,361.8h210.4V407H150.9L150.9,361.8z M346.9,436.7h-67.7
		v15.1h82.1v45.2H150.9v-45.2H234v-15.1h-67.7V422h180.6V436.7z M361.2,317h-82.1v15.1h67.7v14.7H166.2v-14.7H234V317h-83.1v-45.2
		h210.4V317z"/>
</g>
</svg>
