<?xml version="1.0" encoding="utf-8"?>
<!-- Generator: Adobe Illustrator 23.0.3, SVG Export Plug-In . SVG Version: 6.00 Build 0)  -->
<svg version="1.1" id="Layer_1" xmlns="http://www.w3.org/2000/svg" xmlns:xlink="http://www.w3.org/1999/xlink" x="0px" y="0px"
	 viewBox="0 0 512 512" style="enable-background:new 0 0 512 512;" xml:space="preserve">
<style type="text/css">
	.st0{fill:#74BC7A;}
</style>
<g>
	<g>
		<path class="st0" d="M508,455l-7.3-7.3c-2.9-2.9-7.7-2.9-10.6,0c-2.9,2.9-2.9,7.7,0,10.6l6.2,6.2l-31.8,31.8l-54.1-54.1l31.8-31.8
			l25.2,25.2c2.9,2.9,7.7,2.9,10.6,0c2.9-2.9,2.9-7.7,0-10.6l-30.5-30.5c0,0,0,0,0,0l-21.2-21.2c0,0,0,0,0,0l-18.7-18.7
			c-2.5-2.6-5.9-4-9.5-4s-7,1.4-9.5,4l-1.1,1.1l-26.8-26.8c19.2-24,33-52.4,39.8-83.4h52.8c4.1,0,7.5-3.4,7.5-7.5s-3.4-7.5-7.5-7.5
			h-50.2c0.7-4.8,1.2-9.6,1.5-14.5H489c4.1,0,7.5-3.4,7.5-7.5s-3.4-7.5-7.5-7.5h-84c0-4.9-0.2-9.7-0.6-14.5h48.9
			c4.1,0,7.5-3.4,7.5-7.5s-3.4-7.5-7.5-7.5h-50.6c-5.2-34.5-19.3-66.7-41.3-94.6c-2.6-3.2-7.3-3.8-10.5-1.2
			c-3.2,2.6-3.8,7.3-1.2,10.5C376,119.6,390,159.8,390,202.5C390,305.9,305.9,390,202.5,390S15,305.9,15,202.5S99.1,15,202.5,15
			c46.7,0,91.5,17.3,126.1,48.7c3.1,2.8,7.8,2.6,10.6-0.5c2.8-3.1,2.6-7.8-0.5-10.6C301.3,18.7,253,0,202.5,0C90.8,0,0,90.8,0,202.5
			c0,98.6,70.8,180.9,164.2,198.9V452c0,4.1,3.4,7.5,7.5,7.5s7.5-3.4,7.5-7.5v-48.3c4.8,0.5,9.6,0.9,14.5,1.1v82.4
			c0,4.1,3.4,7.5,7.5,7.5s7.5-3.4,7.5-7.5v-82.3c4.9-0.1,9.7-0.5,14.5-0.9v48c0,4.1,3.4,7.5,7.5,7.5s7.5-3.4,7.5-7.5v-50.1
			c33.9-6,64.8-20.5,90.7-41.2l26.8,26.8l-1.1,1.1c-2.6,2.5-4,5.9-4,9.5s1.4,7,4,9.5l18.7,18.7c0,0,0,0,0,0l21.2,21.2c0,0,0,0,0,0
			L455,508c2.5,2.6,5.9,4,9.5,4s7-1.4,9.5-4l33.9-33.9c2.5-2.6,4-5.9,4-9.5S510.6,457.6,508,455L508,455z M350.8,340.2l26.1,26.1
			l-10.6,10.6l-26.1-26.1C343.9,347.4,347.4,343.9,350.8,340.2L350.8,340.2z M399.9,431.7l-10.6-10.6l31.8-31.8l10.6,10.6
			L399.9,431.7z M398.1,366.3l12.4,12.4l-31.8,31.8l-12.4-12.4L398.1,366.3z"/>
		<path class="st0" d="M98.1,339.8c30,22.6,66.1,34.8,104.4,35.2c95.1,0,172.5-77.4,172.5-172.5S297.6,30,202.5,30
			c-45.9,0-89.1,18-121.6,50.6C48.6,113.1,30.5,156.3,30,202.4c-0.5,42.4,15,83.2,43.4,114.8c2.8,3.1,7.5,3.3,10.6,0.6
			s3.3-7.5,0.6-10.6c-25.9-28.8-40-66-39.6-104.6c0.4-42.1,17-81.7,46.6-111.4C121.2,61.4,160.6,45,202.5,45
			C289.3,45,360,115.7,360,202.5S289.3,360,202.6,360c-35-0.4-68-11.6-95.5-32.2c-3.3-2.5-8-1.8-10.5,1.5
			C94.1,332.6,94.7,337.3,98.1,339.8L98.1,339.8z"/>
		<path class="st0" d="M231,68.5h-52c-6.3,0-11.5,5.2-11.5,11.5v26.5H119c-6.3,0-11.5,5.2-11.5,11.5v80.5h-10
			c-4.1,0-7.5,3.4-7.5,7.5s3.4,7.5,7.5,7.5h215.1c4.1,0,7.5-3.4,7.5-7.5s-3.4-7.5-7.5-7.5h-10V156c0-6.3-5.2-11.5-11.5-11.5h-48.5
			V80C242.5,73.7,237.3,68.5,231,68.5z M122.5,121.5h45v77h-45V121.5z M182.5,83.5h45v115h-45V83.5z M287.5,159.5v39h-45v-39H287.5z
			"/>
		<path class="st0" d="M289,277.1h-35.3l-16-41c-1.1-2.9-3.9-4.8-7.1-4.8c-3.1,0-5.9,2-7,4.9l-21.9,59.1l-15.3-43.4
			c-1-2.8-3.5-4.7-6.4-5c-2.9-0.3-5.7,1.2-7.2,3.8l-14.7,26.4h-35.2c-4.1,0-7.5,3.4-7.5,7.5s3.4,7.5,7.5,7.5h39.6
			c2.7,0,5.2-1.5,6.5-3.8l8.8-15.7l16.7,47.3c1.1,3,3.9,5,7,5h0.1c3.1,0,5.9-2,7-4.9l22.3-60.1l10.7,27.4c1.1,2.9,3.9,4.8,7,4.8H289
			c4.1,0,7.5-3.4,7.5-7.5S293.1,277.1,289,277.1z"/>
	</g>
</g>
</svg>
