<?xml version="1.0" encoding="utf-8"?>
<!-- Generator: Adobe Illustrator 23.0.3, SVG Export Plug-In . SVG Version: 6.00 Build 0)  -->
<svg version="1.1" id="Capa_1" xmlns="http://www.w3.org/2000/svg" xmlns:xlink="http://www.w3.org/1999/xlink" x="0px" y="0px"
	 viewBox="0 0 512 512" style="enable-background:new 0 0 512 512;" xml:space="preserve">
<style type="text/css">
	.st0{fill:#0078B4;}
</style>
<g>
	<g>
		<path class="st0" d="M453.3,194.7H324c-4.1,0-7.5,3.4-7.5,7.5s3.4,7.5,7.5,7.5h129.3c4.1,0,7.5-3.4,7.5-7.5
			S457.5,194.7,453.3,194.7z"/>
		<path class="st0" d="M453.3,239.9H324c-4.1,0-7.5,3.4-7.5,7.5s3.4,7.5,7.5,7.5h129.3c4.1,0,7.5-3.4,7.5-7.5
			S457.5,239.9,453.3,239.9z"/>
		<path class="st0" d="M460.8,292.6c0-4.1-3.4-7.5-7.5-7.5H324c-4.1,0-7.5,3.4-7.5,7.5s3.4,7.5,7.5,7.5h129.3
			C457.5,300.1,460.8,296.8,460.8,292.6z"/>
		<path class="st0" d="M324,330.3c-4.1,0-7.5,3.4-7.5,7.5s3.4,7.5,7.5,7.5h64.7c4.1,0,7.5-3.4,7.5-7.5s-3.4-7.5-7.5-7.5H324z"/>
		<path class="st0" d="M498.6,88.2l-77.3-77.3C414.4,4,405,0,395.1,0H140.6c-20.5,0-37.1,16.6-37.1,37.1v76.8c0,4.1,3.4,7.5,7.5,7.5
			s7.5-3.4,7.5-7.5V37.1c0-12.2,9.9-22.1,22.1-22.1h254.4c1.6,0,3.2,0.2,4.8,0.5v68.3c0,14.3,11.6,25.9,25.9,25.9H494
			c0.3,1.6,0.5,3.2,0.5,4.8v360.5c0,12.2-9.9,22.1-22.1,22.1H371.6c8.8-13.1,7.4-31.1-4.2-42.6l-68.2-68.2c-5-5-12.2-6.3-18.4-4
			l-14.7-14.7c41.4-57.5,35.3-137.1-15.3-187.7c-56.2-56.2-148.4-57.3-205.8,0c-56.7,56.7-56.7,149,0,205.8
			c50.6,50.6,130.3,56.6,187.7,15.3l14.7,14.7c-2.3,6.2-0.9,13.4,4,18.4l63.1,63.1h-174c-12.2,0-22.1-9.9-22.1-22.1v-24
			c0-4.1-3.4-7.5-7.5-7.5s-7.5,3.4-7.5,7.5v24c0,20.5,16.6,37.1,37.1,37.1h331.8c20.5,0,37.1-16.6,37.1-37.1V114.4
			C509.5,104.7,505.6,95.2,498.6,88.2L498.6,88.2z M55.7,374.9C4.8,324,4.8,241.2,55.7,190.3c51.5-51.5,134.2-50.3,184.6,0
			c46.9,46.9,51.2,121.3,10.2,173.2c-6.3,8-13.6,15.2-21.5,21.5C177.3,425.9,102.7,421.9,55.7,374.9z M244.6,391.4
			c4.2-3.8,8.3-7.8,12.1-12.1l12.4,12.4l-12.2,12.2L244.6,391.4C244.6,391.4,244.6,391.4,244.6,391.4L244.6,391.4z M330.3,491.5
			l-68.2-68.2c-1-1-1-2.6,0-3.5l0.1-0.1c0,0,0,0,0,0l22.9-22.9c1-1,2.6-1,3.5,0l68.2,68.2c7.3,7.3,7.3,19.2,0,26.5
			C349.5,498.8,337.6,498.8,330.3,491.5L330.3,491.5z M414.8,83.8V25.6l69.1,69.1h-58.2C419.7,94.7,414.8,89.8,414.8,83.8z"/>
		<path class="st0" d="M315.4,48.7H166.6c-8.9,0-16.1,7.2-16.1,16.1v28.7c0,8.9,7.2,16.1,16.1,16.1h148.8c8.9,0,16.1-7.2,16.1-16.1
			V64.8C331.5,55.9,324.3,48.7,315.4,48.7z M316.5,93.5c0,0.6-0.5,1.1-1.1,1.1H166.6c-0.6,0-1.1-0.5-1.1-1.1V64.8
			c0-0.6,0.5-1.1,1.1-1.1h148.8c0.6,0,1.1,0.5,1.1,1.1L316.5,93.5L316.5,93.5z"/>
		<path class="st0" d="M229.7,364.4c45.1-45.1,45.1-118.4,0-163.5c-45.1-45.1-118.4-45.1-163.5,0c-17.5,17.5-28.8,39.7-32.5,64.2
			c-0.6,4.1,2.2,7.9,6.3,8.5c4.1,0.6,7.9-2.2,8.5-6.3c3.3-21.3,13-40.6,28.3-55.8c39.2-39.2,103-39.2,142.3,0
			c37.6,37.6,39.2,97.9,4.6,137.4c-3.3-6.7-8.9-12.2-16.2-15.4c-8.9-3.9-24.2-6.4-33.6-7.6l0-9.5c9.1-6.7,15.6-16.8,17.4-28.5
			c1.6-0.7,3.1-1.6,4.3-2.9c2.5-2.5,3.9-5.9,3.9-9.4c-0.1-9.9-0.1-26.4-0.1-36c0-9.1-6.6-16.6-15.3-18.1c-1.7-8.4-9.1-14.8-18-14.8
			h-36.2c-18.7,0-33.8,15.2-33.8,33.8v35.2c0,5.5,3.3,10.2,8.1,12.2c1.8,11.3,8,21.2,16.6,27.9l0,10.3c-9.4,1.3-24.7,3.9-33.6,7.9
			c-6.7,3-12,8.2-15.2,14.5c-12-13.8-19.9-30.4-23.1-48.5c-0.7-4.1-4.6-6.8-8.7-6.1c-4.1,0.7-6.8,4.6-6.1,8.7
			c4.1,23.5,15.2,44.9,32.1,61.8C111.5,409.6,184.8,409.2,229.7,364.4z M129.8,221.5H166c1.9,0,3.4,1.5,3.4,3.4
			c0,6.2,5,11.2,11.2,11.2h0.4c1.9,0,3.4,1.5,3.4,3.4v4l-9.1-0.9c-8.9-0.8-18,1.3-25.6,5.9c-4.2,2.6-9,3.9-13.9,3.9H111v-12.1
			C111,230,119.4,221.5,129.8,221.5L129.8,221.5z M111,274v-6.5h24.9c7.7,0,15.2-2.1,21.7-6.1c4.9-3,10.7-4.3,16.3-3.8l10.5,1
			c0,4.6,0,10.7,0,15.4c-4.2,0.7-7.4,4.3-7.7,8.6c-0.9,15.3-13.7,27.3-29,27.3c-15.4,0-28.1-12-29.1-27.3
			C118.3,278.3,115.1,274.8,111,274L111,274z M147.6,325c3.9,0,7.6-0.5,11.2-1.4l0,4.2c0,1.9,0.5,3.8,1.2,5.5
			c-3.7,2.5-8.1,3.9-12.8,3.9c0,0,0,0-0.1,0c-4.6,0-9-1.4-12.7-3.8c0.8-1.7,1.2-3.5,1.2-5.5l0-4.5C139.5,324.4,143.5,325,147.6,325
			L147.6,325z M83.7,360c1.1-5.5,4.6-10.1,9.6-12.3c5.1-2.3,14.9-4.6,27.3-6.4c7.1,6.9,16.5,10.8,26.6,10.8h0.1
			c10.1,0,19.6-4,26.7-11.1c12.4,1.7,22.2,3.9,27.4,6.2c5.7,2.5,9.4,7.3,10.4,13.2C174.6,390.9,120.6,390.8,83.7,360L83.7,360z"/>
	</g>
</g>
</svg>
